HIERARCHY
ROOT Hips
{
	OFFSET -3.958830 18.904000 13.208200
	CHANNELS 6 Xposition Yposition Zposition Zrotation Yrotation Xrotation 
	JOINT LHipJoint
	{
		OFFSET 0.000000 0.000000 0.000000
		CHANNELS 3 Zrotation Yrotation Xrotation
		JOINT LeftUpLeg
		{
			OFFSET 1.800000 -1.400000 0.085000
			CHANNELS 3 Zrotation Yrotation Xrotation
			JOINT LeftLeg
			{
				OFFSET 2.215000 -6.000000 0.000000
				CHANNELS 3 Zrotation Yrotation Xrotation
				JOINT LeftFoot
				{
					OFFSET 2.500000 -6.900000 0.000000
					CHANNELS 3 Zrotation Yrotation Xrotation
					JOINT LeftToeBase
					{
						OFFSET 0.200000 -0.500000 1.950000
						CHANNELS 3 Zrotation Yrotation Xrotation
						End Site
						{
							OFFSET 0.000000 0.000000 0.000000
						}
					}
				}
			}
		}
	}
	JOINT RHipJoint
	{
		OFFSET 0.000000 0.000000 0.000000
		CHANNELS 3 Zrotation Yrotation Xrotation
		JOINT RightUpLeg
		{
			OFFSET -1.800000 -1.400000 0.085000
			CHANNELS 3 Zrotation Yrotation Xrotation
			JOINT RightLeg
			{
				OFFSET -2.215000 -6.000000 0.000000
				CHANNELS 3 Zrotation Yrotation Xrotation
				JOINT RightFoot
				{
					OFFSET -2.500000 -6.900000 0.000000
					CHANNELS 3 Zrotation Yrotation Xrotation
					JOINT RightToeBase
					{
						OFFSET -0.200000 -0.500000 1.950000
						CHANNELS 3 Zrotation Yrotation Xrotation
						End Site
						{
							OFFSET 0.000000 0.000000 0.000000
						}
					}
				}
			}
		}
	}
	JOINT LowerBack
	{
		OFFSET 0.000000 0.000000 0.000000
		CHANNELS 3 Zrotation Yrotation Xrotation
		JOINT Spine
		{
			OFFSET -0.087000 1.940000 -0.288900
			CHANNELS 3 Zrotation Yrotation Xrotation
			JOINT Spine1
			{
				OFFSET 0.000000 1.950000 0.060000
				CHANNELS 3 Zrotation Yrotation Xrotation
				JOINT Neck
				{
					OFFSET 0.000000 0.000000 0.000000
					CHANNELS 3 Zrotation Yrotation Xrotation
					JOINT Neck1
					{
						OFFSET 0.000000 1.600000 0.340000
						CHANNELS 3 Zrotation Yrotation Xrotation
						JOINT Head
						{
							OFFSET 0.000000 1.667000 -0.240000
							CHANNELS 3 Zrotation Yrotation Xrotation
							End Site
							{
								OFFSET 0.000000 0.000000 0.000000
							}
						}
					}
				}
				JOINT LeftShoulder
				{
					OFFSET 0.000000 0.000000 0.000000
					CHANNELS 3 Zrotation Yrotation Xrotation
					JOINT LeftArm
					{
						OFFSET 2.700000 1.550000 -0.730000
						CHANNELS 3 Zrotation Yrotation Xrotation
						JOINT LeftForeArm
						{
							OFFSET 5.450000 0.000000 0.000000
							CHANNELS 3 Zrotation Yrotation Xrotation
							JOINT LeftHand
							{
								OFFSET 3.450000 0.000000 0.000000
								CHANNELS 3 Zrotation Yrotation Xrotation
								JOINT LeftHandIndex1
								{
									OFFSET 0.750000 0.000000 0.000000
									CHANNELS 3 Zrotation Yrotation Xrotation
									End Site
									{
										OFFSET 0.000000 0.000000 0.000000
									}
								}
							}
						}
					}
				}
				JOINT RightShoulder
				{
					OFFSET 0.000000 0.000000 0.000000
					CHANNELS 3 Zrotation Yrotation Xrotation
					JOINT RightArm
					{
						OFFSET -2.700000 1.550000 -0.730000
						CHANNELS 3 Zrotation Yrotation Xrotation
						JOINT RightForeArm
						{
							OFFSET -5.450000 0.000000 0.000000
							CHANNELS 3 Zrotation Yrotation Xrotation
							JOINT RightHand
							{
								OFFSET -3.450000 0.000000 0.000000
								CHANNELS 3 Zrotation Yrotation Xrotation
								JOINT RightHandIndex1
								{
									OFFSET -0.750000 0.000000 0.000000
									CHANNELS 3 Zrotation Yrotation Xrotation
									End Site
									{
										OFFSET 0.000000 0.000000 0.000000
									}
								}
							}
						}
					}
				}
			}
		}
	}
}
MOTION
Frames: 4
Frame Time: 0.016667
0.810170 16.159250 -1.012830 -8.927759 -6.958647 19.673245 -15.085368 10.733807 4.514763 -7.424198 -8.178062 -41.237924 -14.031166 5.687037 12.753227 -0.570789 3.104229 3.432072 0.030360 0.414680 -0.325010 18.749723 -9.971350 3.426272 18.800536 0.742704 -18.773270 10.040055 -3.142982 1.346552 -0.015195 -2.337294 3.195692 0.443150 0.615140 0.004710 -4.398764 0.223521 -8.070793 -7.765900 3.129265 15.478833 -15.907719 7.641852 7.503971 -2.888379 -9.634582 -13.833834 -12.571303 -2.462632 11.651409 1.552590 -9.284720 -16.834770 4.452209 -8.792528 6.126586 -22.975636 -3.072933 -1.372041 21.507025 3.457358 -0.137842 -4.338222 2.845755 -0.092020 0.157960 -0.100220 0.136450 1.972608 20.687156 10.798357 37.373735 10.023046 -1.178403 4.635503 16.743072 -1.183063 2.468104 -1.263600 -0.220730 0.619130 0.248570 0.395320 
0.801300 16.171070 -1.036320 -9.228977 -10.556071 18.760726 -15.105320 10.940088 4.425950 -6.024490 -7.687561 -39.930052 -14.220610 5.589415 12.067698 -0.534153 3.090714 3.429158 0.106530 0.479760 -0.277250 18.704914 -9.943719 3.436841 18.643059 0.335935 -17.284843 9.922020 -3.218254 1.561180 -0.075790 -2.436858 3.142109 0.459400 0.580920 0.031180 -4.293384 -0.151021 -8.044677 -10.223645 2.588885 16.438234 -16.028872 6.637251 7.052745 -2.600016 -10.009463 -14.452516 -13.548862 -0.535652 10.589686 2.673350 -8.352770 -17.239270 5.128919 -8.435734 6.152802 -27.274900 -2.833030 -1.861309 23.531449 3.613055 -0.021173 -4.272933 2.980352 -0.090510 0.124500 -0.074410 0.161750 0.975809 20.331198 11.346029 33.786784 6.577267 -3.639291 8.444077 22.615006 -0.855820 2.394194 -1.354059 -0.172620 0.573710 0.200340 0.404110 
0.795270 16.187540 -1.066030 -9.280616 -14.420787 17.412989 -15.159974 11.277116 4.292975 -5.116600 -7.045575 -37.761007 -14.094870 5.336683 10.813186 -0.581774 3.043079 3.422497 0.114220 0.490810 -0.259040 18.620188 -9.863200 3.438269 18.414211 -0.203729 -15.528727 9.093366 -3.287214 1.707991 -0.113809 -2.517054 3.089759 0.471990 0.553940 0.044930 -4.074913 -0.825970 -7.968938 -13.562716 2.344204 16.983779 -15.391799 5.944723 7.665034 -2.018435 -10.507636 -15.509701 -15.082620 1.983813 9.449427 2.206300 -6.509990 -18.024620 6.511061 -9.103839 6.764012 -32.759718 -2.201760 -2.629102 26.295685 3.565811 -0.020594 -4.254867 3.048155 -0.064990 0.117150 -0.054640 0.134070 -1.073869 21.188103 11.962055 30.242314 4.406856 -5.386068 12.648578 26.979642 -0.140916 2.294341 -1.393994 -0.173300 0.563370 0.221000 0.379270 
0.799170 16.218920 -1.083670 -9.440877 -17.599531 15.976704 -15.209928 11.639654 4.129297 -4.512768 -6.434113 -35.356752 -12.841165 4.971637 10.009362 -0.638911 2.923631 3.438794 0.154540 0.487610 -0.157230 18.539632 -9.783516 3.457652 17.782498 -0.722160 -13.491180 8.888574 -3.379663 1.164893 -0.194526 -2.639396 2.995366 0.457980 0.475580 0.106330 -3.865785 -1.505776 -7.878257 -15.850227 1.575695 17.322912 -16.407762 5.504494 8.973934 -0.363755 -10.848764 -16.831348 -16.450774 3.821828 8.573925 0.225600 -4.371970 -18.885540 4.290064 -10.832428 7.405713 -31.677835 -0.717680 -2.726703 25.414769 4.399692 -0.000432 -4.237297 3.093032 -0.008750 0.095350 0.001540 0.095800 -1.671311 23.084682 12.948612 25.906852 2.555521 -5.514628 13.003972 26.632239 -0.006460 2.252759 -1.398487 -0.149890 0.494620 0.213910 0.322030 
